<svg width="218" height="50" viewBox="0 0 218 50" fill="none" xmlns="http://www.w3.org/2000/svg">
<path fill-rule="evenodd" clip-rule="evenodd" d="M50.6978 6.95947V46.3524C50.6978 48.3524 49.0765 49.9736 47.0765 49.9736H46.9736C24.7809 46.7145 -5.82385 22.8547 50.6978 6.95947ZM10.0122 49.9736C4.04195 43.9155 0.934566 38.6415 7.62939e-05 34.0669V46.3524C7.62939e-05 48.3524 1.62137 49.9736 3.62134 49.9736H10.0122Z" fill="white"/>
<path fill-rule="evenodd" clip-rule="evenodd" d="M50.6978 3.62126C50.6978 1.62129 49.0765 0 47.0765 0H3.62135C1.62138 0 8.01086e-05 1.62129 8.01086e-05 3.62126V28.2884C3.03246 14.7588 31.3065 8.78655 50.6978 7.29452V3.62126Z" fill="url(#paint0_linear)"/>
<path d="M67.2928 25.7108C69.3765 25.7108 71.1972 25.0975 72.5931 24.2798L74.6162 17.0635H68.1222L67.3737 19.9664H70.1048L69.5383 21.888C69.0528 22.1129 68.4459 22.2764 67.6569 22.2764C65.9171 22.2764 64.4807 21.2338 64.4807 19.2305C64.4807 16.5934 66.4431 14.3651 69.2956 14.3651C70.8129 14.3651 71.966 14.9988 72.7954 15.837L75.4254 13.2612C74.4543 11.9938 72.3908 10.8285 69.5586 10.8285C64.157 10.8285 60.4751 14.8353 60.4751 19.394C60.4751 23.7892 63.9143 25.7108 67.2928 25.7108Z" fill="white"/>
<path d="M74.5296 25.4246H78.3734L82.3385 10.5015H78.4947L74.5296 25.4246Z" fill="white"/>
<path d="M86.9264 25.6903C90.6084 25.6903 93.3799 22.6035 93.3799 19.2509C93.3799 16.3481 91.3569 14.1198 87.9986 14.1198C84.3369 14.1198 81.5654 17.2066 81.5654 20.5388C81.5654 23.4621 83.5884 25.6903 86.9264 25.6903ZM87.149 22.4604C86.0161 22.4604 85.2473 21.6631 85.2473 20.3957C85.2473 18.9647 86.279 17.3497 87.7963 17.3497C88.9292 17.3497 89.698 18.147 89.698 19.394C89.698 20.8454 88.6662 22.4604 87.149 22.4604Z" fill="white"/>
<path d="M101.119 25.6699C104.255 25.6699 107.006 22.6239 107.006 18.6581C107.006 15.7961 105.287 14.1198 103.122 14.1198C101.928 14.1198 100.876 14.6718 100.007 15.5303L101.342 10.5015H97.4979L93.553 25.4246H97.3968L97.8014 23.9118C98.469 24.9544 99.4805 25.6699 101.119 25.6699ZM100.452 22.4399C99.3389 22.4399 98.5499 21.6631 98.5499 20.4775C98.5499 18.8012 99.784 17.3293 101.261 17.3293C102.373 17.3293 103.122 18.0857 103.122 19.2713C103.122 21.0294 101.888 22.4399 100.452 22.4399Z" fill="white"/>
<path d="M110.645 25.6494C111.92 25.6494 112.871 25.1179 113.801 24.2389L113.498 25.4246H117.281L118.899 19.3327C119.041 18.7807 119.122 18.2492 119.122 17.7381C119.122 15.5303 117.524 14.222 114.246 14.222C112.668 14.222 111.09 14.4878 109.937 14.8966L110.483 17.7177C111.252 17.4111 112.405 17.1658 113.437 17.1658C114.772 17.1658 115.318 17.6359 115.318 18.3514C115.318 18.6172 115.258 18.842 115.217 19.026L115.177 19.1691C114.307 18.9034 113.397 18.7398 112.405 18.7398C109.512 18.7398 107.59 20.2117 107.59 22.6444C107.59 24.4842 108.845 25.6494 110.645 25.6494ZM112.425 23.2577C111.778 23.2577 111.333 22.8692 111.333 22.2355C111.333 21.2338 112.122 20.641 113.336 20.641C113.862 20.641 114.347 20.7432 114.772 20.8863L114.671 21.2543C114.368 22.3786 113.417 23.2577 112.425 23.2577Z" fill="white"/>
<path d="M119.297 25.4246H123.141L127.106 10.5015H123.263L119.297 25.4246Z" fill="white"/>
<path d="M60.0259 42.0066H61.0025L62.4844 39.9298H66.7727L67.1319 42.0066H68.0412L66.5818 34.0923H65.7286L60.0259 42.0066ZM63.0456 39.1327L65.9195 35.1026L66.6267 39.1327H63.0456Z" fill="white"/>
<path d="M68.7231 43.8027H69.5875L70.4182 40.7043C70.7437 41.4677 71.4061 42.1413 72.596 42.1413C74.2911 42.1413 75.8515 40.5921 75.8515 38.5377C75.8515 37.0559 74.8636 36.0793 73.5502 36.0793C72.6185 36.0793 71.9112 36.5732 71.3499 37.2019L71.6194 36.2028H70.755L68.7231 43.8027ZM72.5174 41.3779C71.451 41.3779 70.7213 40.5809 70.7213 39.5705C70.7213 38.1561 72.0123 36.8426 73.3032 36.8426C74.2799 36.8426 74.9422 37.5386 74.9422 38.6163C74.9422 40.0981 73.8982 41.3779 72.5174 41.3779Z" fill="white"/>
<path d="M79.5244 42.1413C80.546 42.1413 81.2308 41.7596 81.8033 41.2769L81.3542 40.7043C80.8266 41.1309 80.3215 41.3891 79.5693 41.3891C78.4916 41.3891 77.8181 40.6931 77.8181 39.6379C77.8181 39.5705 77.8181 39.5032 77.8293 39.4358H82.3646C82.4993 39.0766 82.5779 38.6949 82.5779 38.302C82.5779 37.0896 81.8033 36.0793 80.3327 36.0793C78.3906 36.0793 76.9537 37.8979 76.9537 39.6716C76.9537 41.1422 77.9865 42.1413 79.5244 42.1413ZM77.9528 38.7398C78.2783 37.6734 79.1427 36.809 80.2878 36.809C81.2869 36.809 81.7359 37.505 81.7359 38.302C81.7359 38.4928 81.7135 38.6276 81.691 38.7398H77.9528Z" fill="white"/>
<path d="M83.2162 42.0066H84.0806L84.7766 39.4134H88.0995L87.4035 42.0066H88.2679L89.8283 36.2028H88.9639L88.2904 38.6725H84.9675L85.641 36.2028H84.7654L83.2162 42.0066Z" fill="white"/>
<path d="M89.0887 43.5445H89.8184L90.3572 42.0066H95.1507L94.7353 43.5445H95.4538L96.1947 41.2656H95.2966L96.655 36.2028H92.5014L92.2207 37.2355C91.6931 39.1888 91.0645 40.4349 90.346 41.2656H89.6837L89.0887 43.5445ZM91.2778 41.2656C91.8615 40.5809 92.5351 39.1888 92.8943 37.8305L93.13 36.9437H95.5885L94.421 41.2656H91.2778Z" fill="white"/>
<path d="M99.0461 42.13C99.9666 42.13 100.685 41.7147 101.213 41.0973L100.977 42.0066H101.83L102.706 38.7174C102.773 38.4479 102.818 38.1561 102.818 37.9203C102.818 36.7977 101.999 36.1129 100.539 36.1129C99.787 36.1129 99.192 36.2477 98.6083 36.4722L98.7654 37.2019C99.2818 37.011 99.787 36.8988 100.404 36.8988C101.448 36.8988 101.965 37.3253 101.965 38.0663C101.965 38.2234 101.931 38.4367 101.897 38.5939L101.853 38.7398C101.303 38.5827 100.573 38.4255 99.7982 38.4255C98.3052 38.4255 97.2163 39.2225 97.2163 40.5247C97.2163 41.5575 98.0694 42.13 99.0461 42.13ZM99.3267 41.4453C98.5746 41.4453 98.1031 41.0411 98.1031 40.4237C98.1031 39.6267 98.8104 39.0654 99.8319 39.0654C100.55 39.0654 101.201 39.1888 101.707 39.3236L101.594 39.7277C101.314 40.7493 100.303 41.4453 99.3267 41.4453Z" fill="white"/>
<path d="M108.88 42.13C109.8 42.13 110.519 41.7147 111.046 41.0973L110.811 42.0066H111.664L112.539 38.7174C112.607 38.4479 112.652 38.1561 112.652 37.9203C112.652 36.7977 111.832 36.1129 110.373 36.1129C109.621 36.1129 109.026 36.2477 108.442 36.4722L108.599 37.2019C109.115 37.011 109.621 36.8988 110.238 36.8988C111.282 36.8988 111.798 37.3253 111.798 38.0663C111.798 38.2234 111.765 38.4367 111.731 38.5939L111.686 38.7398C111.136 38.5827 110.406 38.4255 109.632 38.4255C108.139 38.4255 107.05 39.2225 107.05 40.5247C107.05 41.5575 107.903 42.13 108.88 42.13ZM109.16 41.4453C108.408 41.4453 107.937 41.0411 107.937 40.4237C107.937 39.6267 108.644 39.0654 109.666 39.0654C110.384 39.0654 111.035 39.1888 111.54 39.3236L111.428 39.7277C111.147 40.7493 110.137 41.4453 109.16 41.4453Z" fill="white"/>
<path d="M113.496 42.0066H116.515C118.076 42.0066 118.974 41.2769 118.974 40.289C118.974 39.6267 118.491 39.2001 117.907 39.0541C118.749 38.8745 119.4 38.3694 119.4 37.5499C119.4 36.7304 118.738 36.2028 117.582 36.2028H115.056L113.496 42.0066ZM114.562 41.2993L115.078 39.3797H116.818C117.548 39.3797 118.087 39.6828 118.087 40.2329C118.087 40.9064 117.458 41.2993 116.47 41.2993H114.562ZM115.236 38.7061L115.718 36.9212H117.391C118.087 36.9212 118.491 37.157 118.491 37.6621C118.491 38.302 117.862 38.7061 116.897 38.7061H115.236Z" fill="white"/>
<path d="M121.409 42.0066H122.274L123.632 36.9549H125.686L125.888 36.214H120.882L120.68 36.9549H122.768L121.409 42.0066Z" fill="white"/>
<path d="M128.64 42.1413C130.458 42.1413 132.064 40.5247 132.064 38.6725C132.064 37.1682 131.008 36.0793 129.414 36.0793C127.562 36.0793 126.002 37.7295 126.002 39.5369C126.002 41.0411 127.046 42.1413 128.64 42.1413ZM128.696 41.3667C127.618 41.3667 126.877 40.6931 126.877 39.5144C126.877 38.1673 128.022 36.8426 129.358 36.8426C130.436 36.8426 131.177 37.5274 131.177 38.7061C131.177 40.0869 129.998 41.3667 128.696 41.3667Z" fill="white"/>
<path d="M133.896 25.4471H137.846L140.723 14.6992H144.978L145.89 11.2518H133.47L132.538 14.6992H136.793L133.896 25.4471Z" fill="#31A56D"/>
<path d="M142.757 25.4471H146.607L147.498 22.1417C148.187 19.5257 149.545 18.3495 151.652 18.3495H151.976L153.07 14.2937C151.287 14.172 150.011 15.1251 148.957 16.6866L149.545 14.4762H145.695L142.757 25.4471Z" fill="#31A56D"/>
<path d="M155.356 25.6702C156.632 25.6702 157.585 25.143 158.517 24.271L158.213 25.4471H162.002L163.622 19.404C163.764 18.8564 163.845 18.3292 163.845 17.8222C163.845 15.6321 162.245 14.3342 158.962 14.3342C157.382 14.3342 155.802 14.5978 154.647 15.0034L155.194 17.8019C155.964 17.4977 157.119 17.2544 158.152 17.2544C159.489 17.2544 160.036 17.7208 160.036 18.4306C160.036 18.6942 159.976 18.9173 159.935 19.0998L159.894 19.2417C159.023 18.9781 158.112 18.8159 157.119 18.8159C154.221 18.8159 152.297 20.276 152.297 22.6892C152.297 24.5143 153.553 25.6702 155.356 25.6702ZM157.139 23.2976C156.491 23.2976 156.045 22.9123 156.045 22.2836C156.045 21.2899 156.835 20.7018 158.051 20.7018C158.578 20.7018 159.064 20.8032 159.489 20.9452L159.388 21.3102C159.084 22.4256 158.132 23.2976 157.139 23.2976Z" fill="#31A56D"/>
<path d="M163.94 25.4471H167.79L169.35 19.6473C169.694 18.39 170.322 17.66 171.396 17.66C172.186 17.66 172.612 18.0858 172.612 18.8159C172.612 19.0592 172.571 19.4243 172.49 19.7082L170.95 25.4471H174.8L176.38 19.4851C176.563 18.7956 176.705 18.1061 176.705 17.518C176.705 15.4901 175.509 14.2328 173.524 14.2328C172.227 14.2328 171.133 14.9426 170.383 15.7335L170.728 14.4762H166.878L163.94 25.4471Z" fill="#31A56D"/>
<path d="M181.788 25.7108C184.948 25.7108 186.529 23.8857 186.529 21.7766C186.529 19.9515 185.05 19.2012 183.469 18.5725C182.335 18.1264 181.95 17.9033 181.95 17.5383C181.95 17.153 182.274 16.9097 182.902 16.9097C183.895 16.9097 185.05 17.3761 186.002 18.0858L187.846 15.774C186.853 14.9629 185.09 14.2328 183.105 14.2328C180.086 14.2328 178.323 15.9363 178.323 18.1264C178.323 19.8704 179.66 20.641 181.403 21.3305C182.477 21.7563 182.902 21.9794 182.902 22.3647C182.902 22.7703 182.578 23.0339 181.929 23.0339C180.815 23.0339 179.336 22.5067 178.283 21.5536L176.378 23.8045C177.695 24.9807 179.701 25.7108 181.788 25.7108Z" fill="#31A56D"/>
<path d="M187.739 25.4471H191.589L193.716 17.5789H196.107L196.917 14.537H194.445L194.506 14.3545C194.689 13.6447 195.094 13.3203 195.884 13.3203C196.269 13.3203 196.775 13.4217 197.181 13.5636L197.89 10.8665C197.16 10.6231 196.391 10.5015 195.438 10.5015C192.926 10.5015 191.427 11.5763 190.738 14.2531L190.677 14.4762H189.401L188.57 17.5789H189.867L187.739 25.4471Z" fill="#31A56D"/>
<path d="M201.739 25.7108C203.643 25.7108 205.102 25.0416 206.216 24.0682L204.433 21.9591C203.603 22.5675 202.894 22.8311 202.103 22.8311C200.787 22.8311 200.138 22.1214 200.057 21.0263H207.331C207.594 20.3165 207.756 19.5257 207.756 18.7753C207.756 16.4027 206.338 14.2328 203.096 14.2328C199.044 14.2328 196.511 17.5991 196.511 20.8438C196.511 23.8045 198.497 25.7108 201.739 25.7108ZM200.321 19.0592C200.787 17.7411 201.8 17.0719 202.833 17.0719C203.846 17.0719 204.332 17.7208 204.332 18.4711C204.332 18.6739 204.292 18.8767 204.231 19.0592H200.321Z" fill="#31A56D"/>
<path d="M207.687 25.4471H211.537L212.428 22.1417C213.117 19.5257 214.474 18.3495 216.582 18.3495H216.906L218 14.2937C216.217 14.172 214.94 15.1251 213.887 16.6866L214.474 14.4762H210.625L207.687 25.4471Z" fill="#31A56D"/>
<defs>
<linearGradient id="paint0_linear" x1="51.6031" y1="-0.543187" x2="8.13573e-05" y2="13.2176" gradientUnits="userSpaceOnUse">
<stop stop-color="#00CF6C"/>
<stop offset="1" stop-color="#31A56D"/>
</linearGradient>
</defs>
</svg>
