<svg width="218" height="50" viewBox="0 0 218 50" fill="none" xmlns="http://www.w3.org/2000/svg">
<path fill-rule="evenodd" clip-rule="evenodd" d="M50.6978 6.95926V46.3522C50.6978 48.3521 49.0765 49.9734 47.0765 49.9734H46.9736C24.7809 46.7143 -5.82385 22.8545 50.6978 6.95926ZM10.0122 49.9734C4.04195 43.9153 0.934566 38.6413 7.62939e-05 34.0667V46.3522C7.62939e-05 48.3521 1.62137 49.9734 3.62134 49.9734H10.0122Z" fill="#3A3A3C"/>
<path fill-rule="evenodd" clip-rule="evenodd" d="M50.6978 3.62126C50.6978 1.62129 49.0765 0 47.0765 0H3.62135C1.62138 0 8.01086e-05 1.62129 8.01086e-05 3.62126V28.2884C3.03246 14.7588 31.3065 8.78655 50.6978 7.29452V3.62126Z" fill="url(#paint0_linear)"/>
<path d="M67.2928 25.711C69.3765 25.711 71.1972 25.0977 72.5931 24.28L74.6162 17.0638H68.1222L67.3737 19.9666H70.1048L69.5383 21.8882C69.0528 22.1131 68.4459 22.2766 67.6569 22.2766C65.9171 22.2766 64.4807 21.234 64.4807 19.2307C64.4807 16.5936 66.4431 14.3653 69.2956 14.3653C70.8129 14.3653 71.966 14.9991 72.7954 15.8372L75.4254 13.2614C74.4543 11.994 72.3908 10.8288 69.5586 10.8288C64.157 10.8288 60.4751 14.8355 60.4751 19.3942C60.4751 23.7894 63.9143 25.711 67.2928 25.711Z" fill="black"/>
<path d="M74.5296 25.4248H78.3734L82.3385 10.5017H78.4947L74.5296 25.4248Z" fill="black"/>
<path d="M86.9264 25.6905C90.6084 25.6905 93.3799 22.6037 93.3799 19.2511C93.3799 16.3483 91.3569 14.12 87.9986 14.12C84.3369 14.12 81.5654 17.2069 81.5654 20.539C81.5654 23.4623 83.5884 25.6905 86.9264 25.6905ZM87.149 22.4606C86.0161 22.4606 85.2473 21.6633 85.2473 20.3959C85.2473 18.9649 86.279 17.35 87.7963 17.35C88.9292 17.35 89.698 18.1472 89.698 19.3942C89.698 20.8456 88.6662 22.4606 87.149 22.4606Z" fill="black"/>
<path d="M101.119 25.6701C104.255 25.6701 107.006 22.6241 107.006 18.6583C107.006 15.7963 105.287 14.12 103.122 14.12C101.928 14.12 100.876 14.672 100.007 15.5306L101.342 10.5017H97.4979L93.553 25.4248H97.3968L97.8014 23.912C98.469 24.9546 99.4805 25.6701 101.119 25.6701ZM100.452 22.4402C99.3389 22.4402 98.5499 21.6633 98.5499 20.4777C98.5499 18.8014 99.784 17.3295 101.261 17.3295C102.373 17.3295 103.122 18.0859 103.122 19.2716C103.122 21.0296 101.888 22.4402 100.452 22.4402Z" fill="black"/>
<path d="M110.645 25.6497C111.92 25.6497 112.871 25.1181 113.801 24.2391L113.498 25.4248H117.281L118.899 19.3329C119.041 18.7809 119.122 18.2494 119.122 17.7384C119.122 15.5306 117.524 14.2222 114.246 14.2222C112.668 14.2222 111.09 14.488 109.937 14.8968L110.483 17.7179C111.252 17.4113 112.405 17.166 113.437 17.166C114.772 17.166 115.318 17.6361 115.318 18.3516C115.318 18.6174 115.258 18.8423 115.217 19.0262L115.177 19.1693C114.307 18.9036 113.397 18.7401 112.405 18.7401C109.512 18.7401 107.59 20.2119 107.59 22.6446C107.59 24.4844 108.845 25.6497 110.645 25.6497ZM112.425 23.2579C111.778 23.2579 111.333 22.8695 111.333 22.2357C111.333 21.234 112.122 20.6412 113.336 20.6412C113.862 20.6412 114.347 20.7434 114.772 20.8865L114.671 21.2545C114.368 22.3788 113.417 23.2579 112.425 23.2579Z" fill="black"/>
<path d="M119.297 25.4248H123.141L127.106 10.5017H123.263L119.297 25.4248Z" fill="black"/>
<path d="M60.0259 42.0066H61.0025L62.4844 39.9299H66.7727L67.1319 42.0066H68.0412L66.5818 34.0924H65.7286L60.0259 42.0066ZM63.0456 39.1328L65.9195 35.1027L66.6267 39.1328H63.0456Z" fill="#A3A3A3"/>
<path d="M68.7231 43.8028H69.5875L70.4182 40.7044C70.7437 41.4678 71.4061 42.1414 72.596 42.1414C74.2911 42.1414 75.8515 40.5922 75.8515 38.5378C75.8515 37.056 74.8636 36.0794 73.5502 36.0794C72.6185 36.0794 71.9112 36.5733 71.3499 37.202L71.6194 36.2028H70.755L68.7231 43.8028ZM72.5174 41.378C71.451 41.378 70.7213 40.581 70.7213 39.5706C70.7213 38.1562 72.0123 36.8427 73.3032 36.8427C74.2799 36.8427 74.9422 37.5387 74.9422 38.6164C74.9422 40.0982 73.8982 41.378 72.5174 41.378Z" fill="#A3A3A3"/>
<path d="M79.5244 42.1414C80.546 42.1414 81.2308 41.7597 81.8033 41.277L81.3542 40.7044C80.8266 41.131 80.3215 41.3892 79.5693 41.3892C78.4916 41.3892 77.8181 40.6932 77.8181 39.638C77.8181 39.5706 77.8181 39.5033 77.8293 39.4359H82.3646C82.4993 39.0767 82.5779 38.695 82.5779 38.3021C82.5779 37.0897 81.8033 36.0794 80.3327 36.0794C78.3906 36.0794 76.9537 37.898 76.9537 39.6717C76.9537 41.1423 77.9865 42.1414 79.5244 42.1414ZM77.9528 38.7399C78.2783 37.6734 79.1427 36.809 80.2878 36.809C81.2869 36.809 81.7359 37.5051 81.7359 38.3021C81.7359 38.4929 81.7135 38.6276 81.691 38.7399H77.9528Z" fill="#A3A3A3"/>
<path d="M83.2162 42.0066H84.0806L84.7766 39.4135H88.0995L87.4035 42.0066H88.2679L89.8283 36.2028H88.9639L88.2904 38.6725H84.9675L85.641 36.2028H84.7654L83.2162 42.0066Z" fill="#A3A3A3"/>
<path d="M89.0887 43.5446H89.8184L90.3572 42.0066H95.1507L94.7353 43.5446H95.4538L96.1947 41.2657H95.2966L96.655 36.2028H92.5014L92.2207 37.2356C91.6931 39.1889 91.0645 40.435 90.346 41.2657H89.6837L89.0887 43.5446ZM91.2778 41.2657C91.8615 40.581 92.5351 39.1889 92.8943 37.8306L93.13 36.9438H95.5885L94.421 41.2657H91.2778Z" fill="#A3A3A3"/>
<path d="M99.0461 42.1301C99.9666 42.1301 100.685 41.7148 101.213 41.0973L100.977 42.0066H101.83L102.706 38.7175C102.773 38.448 102.818 38.1562 102.818 37.9204C102.818 36.7978 101.999 36.113 100.539 36.113C99.787 36.113 99.192 36.2478 98.6083 36.4723L98.7654 37.202C99.2818 37.0111 99.787 36.8989 100.404 36.8989C101.448 36.8989 101.965 37.3254 101.965 38.0664C101.965 38.2235 101.931 38.4368 101.897 38.594L101.853 38.7399C101.303 38.5827 100.573 38.4256 99.7982 38.4256C98.3052 38.4256 97.2163 39.2226 97.2163 40.5248C97.2163 41.5576 98.0694 42.1301 99.0461 42.1301ZM99.3267 41.4454C98.5746 41.4454 98.1031 41.0412 98.1031 40.4238C98.1031 39.6268 98.8104 39.0655 99.8319 39.0655C100.55 39.0655 101.201 39.1889 101.707 39.3237L101.594 39.7278C101.314 40.7493 100.303 41.4454 99.3267 41.4454Z" fill="#A3A3A3"/>
<path d="M108.88 42.1301C109.8 42.1301 110.519 41.7148 111.046 41.0973L110.811 42.0066H111.664L112.539 38.7175C112.607 38.448 112.652 38.1562 112.652 37.9204C112.652 36.7978 111.832 36.113 110.373 36.113C109.621 36.113 109.026 36.2478 108.442 36.4723L108.599 37.202C109.115 37.0111 109.621 36.8989 110.238 36.8989C111.282 36.8989 111.798 37.3254 111.798 38.0664C111.798 38.2235 111.765 38.4368 111.731 38.594L111.686 38.7399C111.136 38.5827 110.406 38.4256 109.632 38.4256C108.139 38.4256 107.05 39.2226 107.05 40.5248C107.05 41.5576 107.903 42.1301 108.88 42.1301ZM109.16 41.4454C108.408 41.4454 107.937 41.0412 107.937 40.4238C107.937 39.6268 108.644 39.0655 109.666 39.0655C110.384 39.0655 111.035 39.1889 111.54 39.3237L111.428 39.7278C111.147 40.7493 110.137 41.4454 109.16 41.4454Z" fill="#A3A3A3"/>
<path d="M113.496 42.0066H116.515C118.076 42.0066 118.974 41.277 118.974 40.2891C118.974 39.6268 118.491 39.2002 117.907 39.0542C118.749 38.8746 119.4 38.3695 119.4 37.55C119.4 36.7305 118.738 36.2028 117.582 36.2028H115.056L113.496 42.0066ZM114.562 41.2994L115.078 39.3798H116.818C117.548 39.3798 118.087 39.6829 118.087 40.233C118.087 40.9065 117.458 41.2994 116.47 41.2994H114.562ZM115.236 38.7062L115.718 36.9213H117.391C118.087 36.9213 118.491 37.1571 118.491 37.6622C118.491 38.3021 117.862 38.7062 116.897 38.7062H115.236Z" fill="#A3A3A3"/>
<path d="M121.409 42.0066H122.274L123.632 36.955H125.686L125.888 36.2141H120.882L120.68 36.955H122.768L121.409 42.0066Z" fill="#A3A3A3"/>
<path d="M128.64 42.1414C130.458 42.1414 132.064 40.5248 132.064 38.6725C132.064 37.1683 131.008 36.0794 129.414 36.0794C127.562 36.0794 126.002 37.7296 126.002 39.5369C126.002 41.0412 127.046 42.1414 128.64 42.1414ZM128.696 41.3668C127.618 41.3668 126.877 40.6932 126.877 39.5145C126.877 38.1674 128.022 36.8427 129.358 36.8427C130.436 36.8427 131.177 37.5275 131.177 38.7062C131.177 40.087 129.998 41.3668 128.696 41.3668Z" fill="#A3A3A3"/>
<path d="M133.896 25.4474H137.846L140.723 14.6994H144.978L145.89 11.252H133.47L132.538 14.6994H136.793L133.896 25.4474Z" fill="#31A56D"/>
<path d="M142.757 25.4474H146.607L147.498 22.1419C148.187 19.5259 149.545 18.3497 151.652 18.3497H151.976L153.07 14.2939C151.287 14.1722 150.011 15.1253 148.957 16.6868L149.545 14.4764H145.695L142.757 25.4474Z" fill="#31A56D"/>
<path d="M155.356 25.6704C156.632 25.6704 157.585 25.1432 158.517 24.2712L158.213 25.4474H162.002L163.622 19.4042C163.764 18.8567 163.845 18.3294 163.845 17.8224C163.845 15.6323 162.245 14.3344 158.962 14.3344C157.382 14.3344 155.802 14.5981 154.647 15.0036L155.194 17.8021C155.964 17.498 157.119 17.2546 158.152 17.2546C159.489 17.2546 160.036 17.721 160.036 18.4308C160.036 18.6944 159.976 18.9175 159.935 19.1L159.894 19.242C159.023 18.9783 158.112 18.8161 157.119 18.8161C154.221 18.8161 152.297 20.2762 152.297 22.6894C152.297 24.5145 153.553 25.6704 155.356 25.6704ZM157.139 23.2978C156.491 23.2978 156.045 22.9125 156.045 22.2838C156.045 21.2901 156.835 20.7021 158.051 20.7021C158.578 20.7021 159.064 20.8034 159.489 20.9454L159.388 21.3104C159.084 22.4258 158.132 23.2978 157.139 23.2978Z" fill="#31A56D"/>
<path d="M163.94 25.4474H167.79L169.35 19.6475C169.694 18.3902 170.322 17.6602 171.396 17.6602C172.186 17.6602 172.612 18.0861 172.612 18.8161C172.612 19.0594 172.571 19.4245 172.49 19.7084L170.95 25.4474H174.8L176.38 19.4853C176.563 18.7958 176.705 18.1063 176.705 17.5182C176.705 15.4903 175.509 14.233 173.524 14.233C172.227 14.233 171.133 14.9428 170.383 15.7337L170.728 14.4764H166.878L163.94 25.4474Z" fill="#31A56D"/>
<path d="M181.788 25.711C184.948 25.711 186.529 23.8859 186.529 21.7768C186.529 19.9517 185.05 19.2014 183.469 18.5727C182.335 18.1266 181.95 17.9035 181.95 17.5385C181.95 17.1532 182.274 16.9099 182.902 16.9099C183.895 16.9099 185.05 17.3763 186.002 18.0861L187.846 15.7742C186.853 14.9631 185.09 14.233 183.105 14.233C180.086 14.233 178.323 15.9365 178.323 18.1266C178.323 19.8706 179.66 20.6412 181.403 21.3307C182.477 21.7566 182.902 21.9796 182.902 22.3649C182.902 22.7705 182.578 23.0341 181.929 23.0341C180.815 23.0341 179.336 22.5069 178.283 21.5538L176.378 23.8047C177.695 24.9809 179.701 25.711 181.788 25.711Z" fill="#31A56D"/>
<path d="M187.739 25.4474H191.589L193.716 17.5791H196.107L196.917 14.5372H194.445L194.506 14.3547C194.689 13.6449 195.094 13.3205 195.884 13.3205C196.269 13.3205 196.775 13.4219 197.181 13.5638L197.89 10.8667C197.16 10.6234 196.391 10.5017 195.438 10.5017C192.926 10.5017 191.427 11.5765 190.738 14.2533L190.677 14.4764H189.401L188.57 17.5791H189.867L187.739 25.4474Z" fill="#31A56D"/>
<path d="M201.739 25.711C203.643 25.711 205.102 25.0418 206.216 24.0684L204.433 21.9594C203.603 22.5677 202.894 22.8314 202.103 22.8314C200.787 22.8314 200.138 22.1216 200.057 21.0265H207.331C207.594 20.3167 207.756 19.5259 207.756 18.7755C207.756 16.4029 206.338 14.233 203.096 14.233C199.044 14.233 196.511 17.5994 196.511 20.844C196.511 23.8047 198.497 25.711 201.739 25.711ZM200.321 19.0594C200.787 17.7413 201.8 17.0721 202.833 17.0721C203.846 17.0721 204.332 17.721 204.332 18.4714C204.332 18.6741 204.292 18.8769 204.231 19.0594H200.321Z" fill="#31A56D"/>
<path d="M207.687 25.4474H211.537L212.428 22.1419C213.117 19.5259 214.474 18.3497 216.582 18.3497H216.906L218 14.2939C216.217 14.1722 214.94 15.1253 213.887 16.6868L214.474 14.4764H210.625L207.687 25.4474Z" fill="#31A56D"/>
<defs>
<linearGradient id="paint0_linear" x1="51.6031" y1="-0.543187" x2="8.13573e-05" y2="13.2176" gradientUnits="userSpaceOnUse">
<stop stop-color="#00CF6C"/>
<stop offset="1" stop-color="#31A56D"/>
</linearGradient>
</defs>
</svg>
