<svg width="16" height="16" viewBox="0 0 16 16" fill="none" xmlns="http://www.w3.org/2000/svg">
<g clip-path="url(#clip0)">
<path d="M15.6408 12.6447L13.1699 10.1735C12.6777 9.68329 11.8626 9.69818 11.3533 10.2077L10.1085 11.4523C10.0298 11.4089 9.94841 11.3637 9.86282 11.3156C9.07669 10.88 8.00075 10.283 6.86854 9.14998C5.73297 8.01455 5.1354 6.93695 4.69849 6.15032C4.65238 6.06698 4.60821 5.98664 4.56459 5.91033L5.40008 5.07608L5.81084 4.66481C6.32093 4.15458 6.335 3.33977 5.84398 2.84816L3.37303 0.376657C2.88202 -0.114269 2.06661 -0.0993755 1.55652 0.410856L0.860119 1.11125L0.879149 1.13015C0.645638 1.4281 0.450508 1.77175 0.305299 2.14234C0.171444 2.49509 0.0881058 2.8317 0.0499993 3.16901C-0.276273 5.87388 0.959775 8.34593 4.31425 11.7005C8.95116 16.337 12.6879 15.9868 12.8491 15.9697C13.2002 15.9277 13.5367 15.8438 13.8786 15.711C14.246 15.5675 14.5894 15.3727 14.8872 15.1396L14.9024 15.1532L15.6079 14.4623C16.1169 13.9522 16.1316 13.1371 15.6408 12.6447Z" fill="#00CF6C"/>
</g>
<defs>
<clipPath id="clip0">
<rect width="16" height="16" fill="white"/>
</clipPath>
</defs>
</svg>
