<svg width="50" height="50" viewBox="0 0 50 50" fill="none" xmlns="http://www.w3.org/2000/svg">
<path d="M25 0C11.2154 0 0 11.2144 0 25C0 38.7856 11.2154 50 25 50C38.7846 50 50 38.7856 50 25C50 11.2144 38.7846 0 25 0ZM25 48.0769C12.276 48.0769 1.92308 37.724 1.92308 25C1.92308 12.276 12.276 1.92308 25 1.92308C37.724 1.92308 48.0769 12.276 48.0769 25C48.0769 37.724 37.724 48.0769 25 48.0769Z" fill="url(#paint0_linear)"/>
<path d="M37.0195 24.0385H25.9618V13.4615C25.9618 12.9298 25.5311 12.5 25.0003 12.5C24.4695 12.5 24.0388 12.9298 24.0388 13.4615V24.0385H12.9811C12.4503 24.0385 12.0195 24.4683 12.0195 25C12.0195 25.5317 12.4503 25.9615 12.9811 25.9615H24.0388V37.5C24.0388 38.0317 24.4695 38.4615 25.0003 38.4615C25.5311 38.4615 25.9618 38.0317 25.9618 37.5V25.9615H37.0195C37.5503 25.9615 37.9811 25.5317 37.9811 25C37.9811 24.4683 37.5503 24.0385 37.0195 24.0385Z" fill="url(#paint1_linear)"/>
<defs>
<linearGradient id="paint0_linear" x1="-0.892858" y1="-0.960088" x2="52.4383" y2="6.97534" gradientUnits="userSpaceOnUse">
<stop stop-color="#00CF6C"/>
<stop offset="1" stop-color="#31A56D"/>
</linearGradient>
<linearGradient id="paint1_linear" x1="11.5559" y1="12.0015" x2="39.2471" y2="16.1218" gradientUnits="userSpaceOnUse">
<stop stop-color="#00CF6C"/>
<stop offset="1" stop-color="#31A56D"/>
</linearGradient>
</defs>
</svg>
