<svg width="30" height="30" viewBox="0 0 30 30" fill="none" xmlns="http://www.w3.org/2000/svg">
<g clip-path="url(#clip0)">
<path d="M25.9237 3.04756L16.1588 0.167739C15.4008 -0.0559131 14.599 -0.0559131 13.8407 0.167739L4.076 3.0475C3.35506 3.26008 2.85156 3.93344 2.85156 4.68508V12.7718C2.85156 16.5143 3.96561 20.118 6.07328 23.1933C8.13098 26.1958 10.9946 28.5057 14.3543 29.873C14.5625 29.9577 14.7811 30 14.9998 30C15.2185 30 15.4371 29.9576 15.6452 29.873C19.0049 28.5057 21.8686 26.196 23.9263 23.1933C26.0339 20.118 27.1479 16.5143 27.1479 12.7718V4.68514C27.148 3.9335 26.6446 3.26008 25.9237 3.04756ZM25.7822 12.7718C25.7822 16.2374 24.7509 19.5741 22.7997 22.4211C20.8937 25.2023 18.2417 27.3416 15.1305 28.6078C15.0462 28.6421 14.9535 28.6421 14.8692 28.6078C11.7579 27.3416 9.10592 25.2023 7.19992 22.4211C5.24881 19.5741 4.21744 16.2375 4.21744 12.7718V4.68508C4.21744 4.53479 4.31816 4.40014 4.46236 4.3576L14.2271 1.47778C14.4799 1.40319 14.7399 1.36598 14.9999 1.36598C15.2598 1.36598 15.5198 1.40325 15.7725 1.47784L25.5374 4.3576C25.6815 4.40008 25.7822 4.53473 25.7822 4.68508V12.7718Z" fill="#737373"/>
<path d="M22.5666 6.06773L15.2889 3.92144C15.0994 3.8656 14.8991 3.86548 14.7095 3.92144L7.43197 6.06773C6.99943 6.19535 6.69727 6.59941 6.69727 7.05035V12.7719C6.69727 15.7952 7.6118 18.695 9.34184 21.1579C10.6832 23.0677 12.4755 24.6444 14.5249 25.7177C14.6734 25.7955 14.8363 25.8343 14.9992 25.8343C15.1621 25.8343 15.325 25.7955 15.4736 25.7177C17.5229 24.6444 19.3153 23.0676 20.6566 21.1579C22.3867 18.695 23.3012 15.7952 23.3012 12.7719V7.05035C23.3012 6.59929 22.999 6.19529 22.5666 6.06773ZM21.9354 12.7719C21.9354 15.5127 21.1068 18.1411 19.5391 20.3728C18.3571 22.0554 16.7903 23.4526 14.9992 24.4228C13.2081 23.4526 11.6413 22.0554 10.4594 20.3728C8.89172 18.1411 8.06309 15.5127 8.06309 12.7719V7.30564L14.9992 5.26001L21.9354 7.30564V12.7719Z" fill="#737373"/>
</g>
<defs>
<clipPath id="clip0">
<rect width="30" height="30" fill="white"/>
</clipPath>
</defs>
</svg>
