<svg width="50" height="50" viewBox="0 0 50 50" fill="none" xmlns="http://www.w3.org/2000/svg">
<path d="M35.5081 30.7119C35.0602 30.3108 34.3722 30.35 33.9733 30.7967C31.7059 33.3304 28.4363 34.7826 25.0004 34.7826C21.5657 34.7826 18.295 33.3304 16.0276 30.7967C15.6265 30.35 14.9406 30.3108 14.4928 30.7119C14.045 31.1119 14.008 31.7989 14.408 32.2467C17.0874 35.2402 20.9483 36.9565 25.0004 36.9565C29.0537 36.9565 32.9146 35.2391 35.5928 32.2467C35.9928 31.7989 35.9548 31.1119 35.5081 30.7119Z" fill="url(#paint0_linear)"/>
<path d="M25 0C11.2152 0 0 11.2152 0 25C0 38.7848 11.2152 50 25 50C38.7848 50 50 38.7848 50 25C50 11.2152 38.7848 0 25 0ZM25 47.8261C12.413 47.8261 2.17391 37.587 2.17391 25C2.17391 12.413 12.413 2.17391 25 2.17391C37.587 2.17391 47.8261 12.413 47.8261 25C47.8261 37.587 37.587 47.8261 25 47.8261Z" fill="url(#paint1_linear)"/>
<path d="M33.6965 17.3914C30.6998 17.3914 28.2617 19.8294 28.2617 22.8261C28.2617 23.4261 28.7487 23.9131 29.3487 23.9131C29.9487 23.9131 30.4356 23.4261 30.4356 22.8261C30.4356 21.0283 31.8987 19.5653 33.6965 19.5653C35.4943 19.5653 36.9574 21.0283 36.9574 22.8261C36.9574 23.4261 37.4443 23.9131 38.0443 23.9131C38.6443 23.9131 39.1313 23.4261 39.1313 22.8261C39.1313 19.8294 36.6932 17.3914 33.6965 17.3914Z" fill="url(#paint2_linear)"/>
<path d="M19.5648 22.8261C19.5648 23.4261 20.0517 23.9131 20.6517 23.9131C21.2517 23.9131 21.7387 23.4261 21.7387 22.8261C21.7387 19.8294 19.3007 17.3914 16.3039 17.3914C13.3072 17.3914 10.8691 19.8294 10.8691 22.8261C10.8691 23.4261 11.3561 23.9131 11.9561 23.9131C12.5561 23.9131 13.0431 23.4261 13.0431 22.8261C13.0431 21.0283 14.5061 19.5653 16.3039 19.5653C18.1017 19.5653 19.5648 21.0283 19.5648 22.8261Z" fill="url(#paint3_linear)"/>
<defs>
<linearGradient id="paint0_linear" x1="13.7427" y1="30.3095" x2="32.7641" y2="39.7435" gradientUnits="userSpaceOnUse">
<stop stop-color="#00CF6C"/>
<stop offset="1" stop-color="#31A56D"/>
</linearGradient>
<linearGradient id="paint1_linear" x1="-0.892858" y1="-0.960088" x2="52.4383" y2="6.97534" gradientUnits="userSpaceOnUse">
<stop stop-color="#00CF6C"/>
<stop offset="1" stop-color="#31A56D"/>
</linearGradient>
<linearGradient id="paint2_linear" x1="28.0676" y1="17.2661" x2="39.2315" y2="20.0347" gradientUnits="userSpaceOnUse">
<stop stop-color="#00CF6C"/>
<stop offset="1" stop-color="#31A56D"/>
</linearGradient>
<linearGradient id="paint3_linear" x1="10.675" y1="17.2661" x2="21.8389" y2="20.0347" gradientUnits="userSpaceOnUse">
<stop stop-color="#00CF6C"/>
<stop offset="1" stop-color="#31A56D"/>
</linearGradient>
</defs>
</svg>
