<svg width="50" height="50" viewBox="0 0 50 50" fill="none" xmlns="http://www.w3.org/2000/svg">
<path d="M43.4333 7.5L38.0083 5.15L34.4833 0.908333C34.1667 0.541667 33.875 0 33.3333 0H16.6667C16.175 0 15.875 0.483333 15.5917 0.833333L11.9917 5.15L6.56667 7.5C2.59391 9.20221 0.013072 13.103 0 17.425V44.1667C0 47.3883 2.61167 50 5.83333 50H44.1667C47.3883 50 50 47.3883 50 44.1667V17.425C49.9869 13.103 47.4061 9.20221 43.4333 7.5ZM35.875 22.7667L37.35 27.1917L26.8583 35.0667L37.3583 8.45L40.6917 20.2917L36.4417 21.7083C36.2237 21.7698 36.0402 21.9174 35.9333 22.117C35.8264 22.3166 35.8053 22.5512 35.875 22.7667ZM13.6 21.7083L9.35 20.2917L12.6417 8.45L23.1417 35.0667L12.65 27.1917L14.1667 22.7667C14.2363 22.5512 14.2153 22.3166 14.1084 22.117C14.0015 21.9174 13.8179 21.7698 13.6 21.7083ZM16.6667 2.1L23.85 10L20.0583 13.7833L13.5833 5.83333L16.6667 2.1ZM36.4167 5.83333L29.9417 13.75L26.15 10L33.3333 2.1L36.4167 5.83333ZM26.4167 14.8833C26.448 15.1224 26.3743 15.3634 26.2145 15.544C26.0547 15.7245 25.8245 15.827 25.5833 15.825C24.3417 15.825 24.1 15.8917 23.8 15.5333C23.6446 15.3516 23.5748 15.1118 23.6083 14.875L23.9833 12.1917L25 11.175L26.025 12.2L26.4167 14.8833ZM22.8667 16.925L20.9583 25L15.2333 10.5L19.3583 15.5C19.5067 15.6826 19.7253 15.7941 19.9602 15.8068C20.1952 15.8195 20.4245 15.7322 20.5917 15.5667L22.0167 14.1667L21.95 14.65C21.8179 15.5175 22.1615 16.3893 22.85 16.9333L22.8667 16.925ZM24.45 17.4917H25.5833L27.9917 27.6917L25.0167 35.1917L22.0417 27.6917L24.45 17.4917ZM29.0583 24.9917L27.1667 16.9333C27.8566 16.3903 28.2006 15.5177 28.0667 14.65L27.9833 14.1667C29.4917 15.675 29.5417 15.8333 30 15.8333C30.2492 15.8317 30.4846 15.7186 30.6417 15.525L34.7667 10.525L29.0583 24.9917ZM25 8.75833L18.55 1.66667H31.45L25 8.75833ZM1.66667 44.1667V17.425C1.66731 13.7576 3.85371 10.4436 7.225 9L11.2333 7.28333L7.5 20.6083C7.43035 20.8238 7.45139 21.0584 7.55829 21.258C7.66518 21.4576 7.84872 21.6052 8.06667 21.6667L12.275 23.0667L10.875 27.275C10.7603 27.6164 10.8779 27.993 11.1667 28.2083L24.1667 37.9167V48.3333H5.83333C3.53215 48.3333 1.66667 46.4679 1.66667 44.1667ZM48.3333 44.1667C48.3333 46.4679 46.4679 48.3333 44.1667 48.3333H25.8333V37.9167L38.8333 28.1667C39.1375 27.9626 39.2727 27.5839 39.1667 27.2333L37.7667 23.025L41.9333 21.625C42.3668 21.496 42.6183 21.0448 42.5 20.6083L38.8 7.275L42.8083 8.99167C46.1693 10.4466 48.3418 13.7626 48.3333 17.425V44.1667Z" fill="url(#paint0_linear)"/>
<path d="M30 40C28.6193 40 27.5 41.1193 27.5 42.5C27.5 43.8807 28.6193 45 30 45C31.3807 45 32.5 43.8807 32.5 42.5C32.5 41.1193 31.3807 40 30 40ZM30 43.3333C29.5398 43.3333 29.1667 42.9602 29.1667 42.5C29.1667 42.0398 29.5398 41.6667 30 41.6667C30.4602 41.6667 30.8333 42.0398 30.8333 42.5C30.8333 42.9602 30.4602 43.3333 30 43.3333Z" fill="url(#paint1_linear)"/>
<defs>
<linearGradient id="paint0_linear" x1="-0.892858" y1="-0.960088" x2="52.4383" y2="6.97534" gradientUnits="userSpaceOnUse">
<stop stop-color="#00CF6C"/>
<stop offset="1" stop-color="#31A56D"/>
</linearGradient>
<linearGradient id="paint1_linear" x1="27.4107" y1="39.904" x2="32.7438" y2="40.6975" gradientUnits="userSpaceOnUse">
<stop stop-color="#00CF6C"/>
<stop offset="1" stop-color="#31A56D"/>
</linearGradient>
</defs>
</svg>
